REM MD5 70f4a0fb6cf89ce982774779e3fcfef2
FILE "Eidos Demo Disc Volume 5 (USA).bin" BINARY
  TRACK 01 MODE2/2352
    INDEX 01 00:00:00
  TRACK 02 AUDIO
    INDEX 00 25:53:25
    INDEX 01 25:55:25
  TRACK 03 AUDIO
    INDEX 00 28:30:03
    INDEX 01 28:32:03
  TRACK 04 AUDIO
    INDEX 00 30:51:21
    INDEX 01 30:53:21
REM LEADOUT 30:59:17
